<?xml version="1.0" encoding="UTF-8" standalone="no"?>
<!DOCTYPE svg PUBLIC "-//W3C//DTD SVG 1.1//EN" "http://www.w3.org/Graphics/SVG/1.1/DTD/svg11.dtd">
<svg xmlns="http://www.w3.org/2000/svg" xmlns:xlink="http://www.w3.org/1999/xlink" version="1.1" width="842pt" height="595pt" viewBox="0 0 842 595">
<g enable-background="new">
<clipPath id="cp0">
<path transform="matrix(.06,0,0,-.06,0,595)" d="M 0 0 L 14021 0 L 14021 9890 L 0 9890 L 0 0 "/>
</clipPath>
<g clip-path="url(#cp0)">
<g id="Layer-1" data-name="0">
<path transform="matrix(.06,0,0,-.06,0,595)" stroke-width="100" stroke-linecap="round" stroke-linejoin="round" fill="none" stroke="#ffffff" d="M 4326 5574 L 5499 1271 L 8835 1271 L 10006 5574 "/>
<path transform="matrix(.06,0,0,-.06,0,595)" stroke-width="100" stroke-linecap="round" stroke-linejoin="round" fill="none" stroke="#ffffff" d="M 7166 4899 L 7336 4899 L 7504 4902 L 7589 4904 L 7673 4907 L 7759 4911 L 7846 4916 L 7934 4923 L 8025 4931 L 8118 4941 L 8214 4952 L 8313 4966 L 8364 4974 L 8416 4982 L 8469 4990 L 8522 5000 L 8577 5010 L 8633 5020 L 8690 5031 L 8748 5043 L 8865 5068 L 8984 5095 L 9102 5124 L 9219 5155 L 9332 5188 L 9388 5205 L 9442 5222 L 9494 5240 L 9546 5258 L 9595 5276 L 9642 5295 L 9688 5314 L 9731 5333 L 9771 5352 L 9809 5371 L 9844 5391 L 9876 5411 L 9905 5431 L 9931 5451 L 9953 5471 L 9972 5492 L 9986 5512 L 9992 5523 L 9997 5533 L 10001 5543 L 10004 5553 L 10005 5564 L 10006 5574 L 10005 5584 L 10004 5594 L 10001 5605 L 9997 5615 L 9992 5625 L 9986 5636 L 9972 5656 L 9953 5676 L 9931 5697 L 9905 5717 L 9876 5737 L 9844 5757 L 9809 5776 L 9771 5796 L 9731 5815 L 9688 5834 L 9642 5853 L 9595 5872 L 9546 5890 L 9494 5908 L 9442 5926 L 9388 5943 L 9332 5960 L 9219 5993 L 9102 6024 L 8984 6053 L 8865 6080 L 8748 6105 L 8690 6117 L 8633 6128 L 8577 6139 L 8522 6148 L 8469 6158 L 8416 6166 L 8364 6174 L 8313 6182 L 8214 6196 L 8118 6207 L 8025 6217 L 7934 6225 L 7846 6232 L 7759 6237 L 7673 6241 L 7589 6244 L 7504 6246 L 7336 6248 L 7166 6249 L 6995 6248 L 6827 6246 L 6743 6244 L 6658 6241 L 6573 6237 L 6486 6232 L 6397 6225 L 6306 6217 L 6213 6207 L 6117 6196 L 6018 6182 L 5967 6174 L 5916 6166 L 5863 6158 L 5809 6148 L 5754 6139 L 5698 6128 L 5641 6117 L 5584 6105 L 5466 6080 L 5348 6053 L 5230 6024 L 5113 5993 L 4999 5960 L 4944 5943 L 4890 5926 L 4837 5908 L 4786 5890 L 4737 5872 L 4689 5853 L 4644 5834 L 4601 5815 L 4561 5796 L 4523 5776 L 4487 5757 L 4455 5737 L 4426 5717 L 4401 5697 L 4378 5676 L 4360 5656 L 4345 5636 L 4339 5625 L 4334 5615 L 4331 5605 L 4328 5594 L 4326 5584 L 4326 5574 L 4326 5564 L 4328 5553 L 4331 5543 L 4334 5533 L 4339 5523 L 4345 5512 L 4360 5492 L 4378 5471 L 4401 5451 L 4426 5431 L 4455 5411 L 4487 5391 L 4523 5371 L 4561 5352 L 4601 5333 L 4644 5314 L 4689 5295 L 4737 5276 L 4786 5258 L 4837 5240 L 4890 5222 L 4944 5205 L 4999 5188 L 5113 5155 L 5230 5124 L 5348 5095 L 5466 5068 L 5584 5043 L 5641 5031 L 5698 5020 L 5754 5010 L 5809 5000 L 5863 4990 L 5916 4982 L 5967 4974 L 6018 4966 L 6117 4952 L 6213 4941 L 6306 4931 L 6397 4923 L 6486 4916 L 6573 4911 L 6658 4907 L 6743 4904 L 6827 4902 L 6995 4899 L 7166 4899 "/>
<path transform="matrix(.06,0,0,-.06,0,595)" stroke-width="100" stroke-linecap="round" stroke-linejoin="round" fill="none" stroke="#ffffff" d="M 7167 875 L 7267 875 L 7366 876 L 7465 879 L 7515 882 L 7566 885 L 7618 889 L 7672 893 L 7726 899 L 7783 906 L 7841 914 L 7901 923 L 7964 934 L 8029 946 L 8096 959 L 8165 974 L 8234 990 L 8304 1007 L 8372 1025 L 8439 1044 L 8503 1065 L 8564 1085 L 8593 1096 L 8621 1107 L 8648 1118 L 8673 1129 L 8697 1141 L 8719 1152 L 8740 1164 L 8758 1175 L 8775 1187 L 8791 1199 L 8804 1211 L 8814 1223 L 8823 1235 L 8829 1247 L 8833 1259 L 8835 1271 L 8833 1283 L 8829 1295 L 8823 1307 L 8814 1319 L 8804 1331 L 8791 1343 L 8775 1355 L 8758 1367 L 8740 1378 L 8719 1390 L 8697 1401 L 8673 1413 L 8648 1424 L 8621 1435 L 8593 1446 L 8564 1457 L 8503 1478 L 8439 1498 L 8372 1517 L 8304 1535 L 8234 1552 L 8165 1568 L 8096 1583 L 8029 1596 L 7964 1608 L 7901 1619 L 7841 1628 L 7783 1636 L 7726 1643 L 7672 1648 L 7618 1653 L 7566 1657 L 7515 1660 L 7465 1663 L 7366 1666 L 7267 1667 L 7167 1667 L 7067 1667 L 6968 1666 L 6869 1663 L 6819 1660 L 6768 1657 L 6716 1653 L 6662 1648 L 6608 1643 L 6551 1636 L 6493 1628 L 6433 1619 L 6370 1608 L 6305 1596 L 6238 1583 L 6169 1568 L 6100 1552 L 6030 1535 L 5962 1517 L 5895 1498 L 5831 1478 L 5770 1457 L 5741 1446 L 5713 1435 L 5686 1424 L 5661 1413 L 5637 1401 L 5615 1390 L 5594 1378 L 5576 1367 L 5559 1355 L 5543 1343 L 5530 1331 L 5519 1319 L 5511 1307 L 5505 1295 L 5501 1283 L 5499 1271 L 5501 1259 L 5505 1247 L 5511 1235 L 5519 1223 L 5530 1211 L 5543 1199 L 5559 1187 L 5576 1175 L 5594 1164 L 5615 1152 L 5637 1141 L 5661 1129 L 5686 1118 L 5713 1107 L 5741 1096 L 5770 1085 L 5831 1065 L 5895 1044 L 5962 1025 L 6030 1007 L 6100 990 L 6169 974 L 6238 959 L 6305 946 L 6370 934 L 6433 923 L 6493 914 L 6551 906 L 6608 899 L 6662 893 L 6716 889 L 6768 885 L 6819 882 L 6869 879 L 6968 876 L 7067 875 L 7167 875 "/>
<path transform="matrix(.06,0,0,-.06,0,595)" stroke-width="100" stroke-linecap="round" stroke-linejoin="round" fill="none" stroke="#ffffff" d="M 4326 5574 L 10006 5574 "/>
<path transform="matrix(.06,0,0,-.06,0,595)" stroke-width="100" stroke-linecap="round" stroke-linejoin="round" fill="none" stroke="#ffffff" d="M 7166 5574 L 7166 1271 "/>
<path transform="matrix(.06,0,0,-.06,0,595)" stroke-width="100" stroke-linecap="round" stroke-linejoin="round" fill="none" stroke="#ffffff" d="M 4912 3423 L 9420 3422 "/>
<path transform="matrix(.06,0,0,-.06,0,595)" stroke-width="100" stroke-linecap="round" stroke-linejoin="round" fill="none" stroke="#ffffff" d="M 9418 3422 L 7166 2887 L 7302 2888 L 7435 2890 L 7569 2894 L 7637 2897 L 7705 2901 L 7776 2906 L 7848 2913 L 7921 2921 L 7997 2930 L 8076 2941 L 8157 2953 L 8242 2967 L 8330 2984 L 8420 3002 L 8513 3021 L 8607 3043 L 8701 3066 L 8793 3091 L 8884 3117 L 8927 3130 L 8970 3144 L 9012 3158 L 9053 3172 L 9092 3186 L 9129 3201 L 9165 3216 L 9199 3231 L 9231 3247 L 9261 3262 L 9289 3278 L 9315 3293 L 9338 3309 L 9358 3325 L 9376 3341 L 9390 3357 L 9402 3374 L 9411 3390 L 9416 3406 L 9418 3422 L 9416 3439 L 9411 3455 L 9402 3471 L 9390 3487 L 9376 3504 L 9358 3520 L 9338 3536 L 9315 3552 L 9289 3567 L 9261 3583 L 9231 3598 L 9199 3614 L 9165 3629 L 9129 3644 L 9092 3659 L 9053 3673 L 9012 3687 L 8970 3701 L 8927 3715 L 8884 3728 L 8793 3754 L 8701 3779 L 8607 3802 L 8513 3824 L 8420 3844 L 8330 3862 L 8285 3870 L 8242 3878 L 8157 3892 L 8076 3904 L 7997 3915 L 7921 3924 L 7848 3932 L 7776 3938 L 7705 3944 L 7637 3948 L 7569 3951 L 7435 3955 L 7302 3957 L 7166 3957 L 7031 3957 L 6898 3955 L 6764 3951 L 6696 3948 L 6627 3944 L 6557 3938 L 6485 3932 L 6411 3924 L 6335 3915 L 6257 3904 L 6175 3892 L 6091 3878 L 6048 3870 L 6003 3862 L 5912 3844 L 5819 3824 L 5725 3802 L 5632 3779 L 5539 3754 L 5449 3728 L 5405 3715 L 5362 3701 L 5321 3687 L 5280 3673 L 5241 3659 L 5204 3644 L 5168 3629 L 5134 3614 L 5101 3598 L 5071 3583 L 5044 3567 L 5018 3552 L 4995 3536 L 4975 3520 L 4957 3504 L 4942 3487 L 4931 3471 L 4922 3455 L 4917 3439 L 4915 3422 L 4917 3406 L 4922 3390 L 4931 3374 L 4942 3357 L 4957 3341 L 4975 3325 L 4995 3309 L 5018 3293 L 5044 3278 L 5071 3262 L 5101 3247 L 5134 3231 L 5168 3216 L 5204 3201 L 5241 3186 L 5280 3172 L 5321 3158 L 5362 3144 L 5405 3130 L 5449 3117 L 5539 3091 L 5632 3066 L 5725 3043 L 5819 3021 L 5912 3002 L 6003 2984 L 6091 2967 L 6175 2953 L 6257 2941 L 6335 2930 L 6411 2921 L 6485 2913 L 6557 2906 L 6627 2901 L 6696 2897 L 6764 2894 L 6898 2890 L 7031 2888 L 7166 2887 "/>
<path transform="matrix(.06,0,0,-.06,0,595)" stroke-width="100" stroke-linecap="round" stroke-linejoin="round" fill="none" stroke="#ffffff" d="M 4915 3422 L 7166 3957 "/>
<path transform="matrix(.06,0,0,-.06,0,595)" stroke-width="100" stroke-linecap="round" stroke-linejoin="round" fill="none" stroke="#ffffff" d="M 7166 3422 L 9287 2934 "/>
<path transform="matrix(.06,0,0,-.06,0,595)" stroke-width="100" stroke-linecap="round" stroke-linejoin="round" fill="none" stroke="#ffffff" d="M 7168 1271 L 8291 1004 L 9076 5118 "/>
<path transform="matrix(.06,0,0,-.06,0,595)" stroke-width="100" stroke-linecap="round" stroke-linejoin="round" fill="none" stroke="#ffffff" d="M 7166 2887 L 8292 3155 "/>
<path transform="matrix(.06,0,0,-.06,0,595)" stroke-width="100" stroke-linecap="round" stroke-linejoin="round" fill="none" stroke="#ffffff" d="M 7166 3422 L 8426 2524 "/>
<path transform="matrix(.06,0,0,-.06,0,595)" stroke-width="100" stroke-linecap="round" stroke-linejoin="round" fill="none" stroke="#ffffff" d="M 7168 1271 L 7694 896 L 8060 4934 "/>
<path transform="matrix(.06,0,0,-.06,0,595)" stroke-width="100" stroke-linecap="round" stroke-linejoin="round" fill="none" stroke="#ffffff" d="M 7877 2915 L 8684 3062 "/>
<path transform="matrix(.06,0,0,-.06,0,595)" stroke-width="100" stroke-linecap="round" stroke-linejoin="round" fill="none" stroke="#ffffff" d="M 7166 3422 L 8934 2734 "/>
<path transform="matrix(.06,0,0,-.06,0,595)" stroke-width="100" stroke-linecap="round" stroke-linejoin="round" fill="none" stroke="#ffffff" d="M 8835 1271 L 9420 3422 L 9992 5521 "/>
<path transform="matrix(.06,0,0,-.06,0,595)" stroke-width="100" stroke-linecap="round" stroke-linejoin="round" fill="none" stroke="#ffffff" d="M 7877 2915 L 8291 1004 "/>
<path transform="matrix(.06,0,0,-.06,0,595)" stroke-width="100" stroke-linecap="round" stroke-linejoin="round" fill="none" stroke="#ffffff" d="M 7694 896 L 8683 3061 "/>
<path transform="matrix(.06,0,0,-.06,0,595)" stroke-width="100" stroke-linecap="round" stroke-linejoin="round" fill="none" stroke="#ffffff" d="M 7877 2915 L 9076 5118 "/>
<path transform="matrix(.06,0,0,-.06,0,595)" stroke-width="100" stroke-linecap="round" stroke-linejoin="round" fill="none" stroke="#ffffff" d="M 8060 4934 L 8684 3062 "/>
<path transform="matrix(.06,0,0,-.06,0,595)" stroke-width="100" stroke-linecap="round" stroke-linejoin="round" fill="none" stroke="#ffffff" d="M 8305 2979 L 8934 2734 "/>
<path transform="matrix(.06,0,0,-.06,0,595)" stroke-width="100" stroke-linecap="round" stroke-linejoin="round" fill="none" stroke="#ffffff" d="M 8115 1817 L 8345 1728 "/>
<path transform="matrix(.06,0,0,-.06,0,595)" stroke-width="100" stroke-linecap="round" stroke-linejoin="round" fill="none" stroke="#ffffff" d="M 8408 3890 L 8637 3801 L 8702 3661 L 8763 3521 L 8792 3451 L 8820 3381 L 8845 3312 L 8868 3243 L 8889 3174 L 8906 3106 L 8920 3038 L 8931 2971 L 8935 2937 L 8937 2904 L 8939 2871 L 8940 2838 L 8939 2805 L 8937 2772 L 8934 2739 L 8930 2707 L 8925 2675 L 8918 2643 L 8910 2611 L 8901 2579 L 8891 2547 L 8879 2516 L 8854 2453 L 8825 2391 L 8792 2329 L 8756 2268 L 8718 2207 L 8676 2146 L 8633 2086 L 8588 2026 L 8541 1966 L 8444 1847 L 8345 1728 "/>
<path transform="matrix(.06,0,0,-.06,0,595)" stroke-width="100" stroke-linecap="round" stroke-linejoin="round" fill="none" stroke="#ffffff" d="M 7166 3422 L 7168 1271 "/>
<path transform="matrix(.06,0,0,-.06,0,595)" stroke-width="100" stroke-linecap="round" stroke-linejoin="round" fill="none" stroke="#ffffff" d="M 7785 1906 L 7986 1763 "/>
<path transform="matrix(.06,0,0,-.06,0,595)" stroke-width="100" stroke-linecap="round" stroke-linejoin="round" fill="none" stroke="#ffffff" d="M 7166 3422 L 7166 5574 "/>
<path transform="matrix(.06,0,0,-.06,0,595)" stroke-width="100" stroke-linecap="round" stroke-linejoin="round" fill="none" stroke="#ffffff" d="M 7967 3919 L 8169 3783 L 8224 3646 L 8277 3509 L 8302 3441 L 8326 3373 L 8349 3305 L 8370 3238 L 8389 3171 L 8406 3104 L 8421 3037 L 8433 2971 L 8442 2906 L 8449 2841 L 8452 2776 L 8451 2712 L 8447 2649 L 8443 2617 L 8439 2586 L 8433 2555 L 8426 2524 L 8418 2493 L 8410 2463 L 8389 2402 L 8364 2342 L 8336 2282 L 8305 2223 L 8271 2165 L 8235 2107 L 8196 2049 L 8156 1991 L 8115 1934 L 8072 1877 L 7986 1763 L 8345 1728 "/>
<path transform="matrix(.06,0,0,-.06,0,595)" stroke-width="100" stroke-linecap="round" stroke-linejoin="round" fill="none" stroke="#ffffff" d="M 8169 3783 L 8637 3801 "/>
<path transform="matrix(.06,0,0,-.06,0,595)" stroke-width="100" stroke-linecap="round" stroke-linejoin="round" fill="none" stroke="#ffffff" d="M 7831 2412 L 7785 1906 "/>
<path transform="matrix(.06,0,0,-.06,0,595)" stroke-width="100" stroke-linecap="round" stroke-linejoin="round" fill="none" stroke="#ffffff" d="M 7968 3919 L 7929 3417 "/>
<path transform="matrix(.06,0,0,-.06,0,595)" stroke-width="100" stroke-linecap="round" stroke-linejoin="round" fill="none" stroke="#ffffff" d="M 7877 2915 L 8426 2524 "/>
<path transform="matrix(.06,0,0,-.06,0,595)" stroke-width="100" stroke-linecap="round" stroke-linejoin="round" fill="none" stroke="#ffffff" d="M 7948 3668 L 8005 3549 L 8060 3431 L 8086 3372 L 8111 3313 L 8134 3254 L 8156 3196 L 8175 3138 L 8192 3080 L 8207 3022 L 8219 2965 L 8228 2908 L 8234 2851 L 8236 2795 L 8235 2740 L 8233 2712 L 8230 2685 L 8225 2657 L 8220 2630 L 8214 2603 L 8206 2576 L 8189 2523 L 8167 2470 L 8143 2417 L 8116 2365 L 8086 2313 L 8053 2262 L 8019 2210 L 7983 2159 L 7945 2108 L 7866 2007 L 7785 1906 "/>
<path transform="matrix(.06,0,0,-.06,0,595)" stroke-width="100" stroke-linecap="round" stroke-linejoin="round" fill="none" stroke="#ffffff" d="M 7968 3919 L 8408 3890 "/>
<path transform="matrix(.06,0,0,-.06,0,595)" stroke-width="100" stroke-linecap="round" stroke-linejoin="round" fill="none" stroke="#ffffff" d="M 4916 3423 L 7166 2887 "/>
<path transform="matrix(.06,0,0,-.06,0,595)" stroke-width="100" stroke-linecap="round" stroke-linejoin="round" fill="none" stroke="#ffffff" d="M 7166 3957 L 9418 3422 "/>
<path transform="matrix(-.009485999,.0592452,.0592452,.009485999,482.61,84.25)" stroke-width="100" stroke-linecap="round" stroke-linejoin="round" fill="none" stroke="#ffffff" d="M 731.5 0 C 731.5 259.84999 403.9963 470.5 0 470.5 C -403.9963 470.5 -731.5 259.84999 -731.5 0 C -731.5 -259.84999 -403.9963 -470.5 0 -470.5 C 403.9963 -470.5 731.5 -259.84999 731.5 0 "/>
<path transform="matrix(.06,0,0,-.06,0,595)" stroke-width="100" stroke-linecap="round" stroke-linejoin="round" fill="none" stroke="#ffffff" d="M 8235 9041 L 8191 9037 L 8169 9033 L 8148 9029 L 8129 9022 L 8110 9013 L 8092 9002 L 8074 8989 L 8058 8975 L 8043 8960 L 8028 8943 L 8014 8925 L 8001 8906 L 7989 8886 L 7966 8845 L 7945 8803 L 7927 8760 L 7912 8717 L 7900 8674 L 7896 8653 L 7892 8632 L 7890 8611 L 7889 8590 L 7889 8569 L 7890 8548 L 7893 8528 L 7897 8508 L 7903 8488 L 7909 8468 L 7924 8428 L 7941 8388 L 7960 8348 L 7979 8307 L 7997 8266 L 8014 8222 L 8021 8200 L 8027 8178 L 8031 8157 L 8033 8136 L 8032 8116 L 8027 8098 L 8020 8080 L 8011 8063 L 7999 8046 L 7986 8030 L 7971 8012 L 7956 7994 L 7939 7975 L 7923 7954 L 7906 7932 L 7899 7921 L 7892 7910 L 7887 7900 L 7885 7891 L 7884 7883 L 7886 7878 L 7891 7874 L 7899 7873 L 7908 7873 L 7920 7874 L 7932 7877 L 7945 7880 L 7973 7890 L 8000 7902 L 8025 7915 L 8046 7929 L 8066 7944 L 8084 7960 L 8099 7977 L 8112 7995 L 8124 8014 L 8134 8033 L 8142 8053 L 8149 8073 L 8155 8094 L 8160 8115 L 8163 8137 L 8167 8181 L 8168 8225 L 8166 8269 L 8163 8291 L 8160 8312 L 8155 8334 L 8150 8355 L 8143 8375 L 8135 8395 L 8116 8434 L 8074 8511 L 8056 8550 L 8048 8571 L 8042 8592 L 8037 8614 L 8034 8637 L 8033 8659 L 8033 8681 L 8034 8703 L 8038 8725 L 8043 8746 L 8049 8766 L 8058 8785 L 8068 8803 L 8079 8821 L 8092 8837 L 8107 8854 L 8123 8870 L 8140 8885 L 8158 8900 L 8198 8931 L 8216 8947 L 8225 8955 L 8232 8963 L 8238 8972 L 8243 8981 L 8246 8990 L 8247 9000 L 8246 9010 L 8243 9020 L 8235 9041 L 8236 9043 L 8236 9042 L 8235 9040 L 8233 9033 L 8230 9025 L 8226 9017 L 8221 9010 L 8216 9006 L 8211 9003 L 8206 9002 L 8200 9001 L 8189 9002 L 8178 9003 L 8168 9002 L 8157 9000 L 8147 8996 L 8126 8987 L 8087 8965 L 8069 8953 L 8053 8939 L 8039 8923 L 8027 8905 L 8005 8866 L 7983 8828 L 7972 8809 L 7962 8790 L 7954 8770 L 7947 8750 L 7923 8664 L 7918 8643 L 7914 8622 L 7911 8600 L 7911 8579 L 7912 8557 L 7916 8535 L 7922 8514 L 7929 8493 L 7945 8453 L 7962 8413 L 7977 8371 L 7984 8351 L 7992 8331 L 8002 8311 L 8013 8293 L 8035 8255 L 8045 8235 L 8053 8214 L 8059 8193 L 8062 8171 L 8062 8149 L 8060 8127 L 8055 8106 L 8048 8085 L 8038 8066 L 8027 8047 L 8014 8030 L 8000 8013 L 7971 7979 L 7943 7945 L 7918 7910 L 7893 7874 "/>
<path transform="matrix(-.036950403,.047272199,.047272199,.036950403,529.11,134.95001)" stroke-width="100" stroke-linecap="round" stroke-linejoin="round" fill="none" stroke="#ffffff" d="M 731.5 0 C 731.5 259.84999 403.9963 470.5 0 470.5 C -403.9963 470.5 -731.5 259.84999 -731.5 0 C -731.5 -259.84999 -403.9963 -470.5 0 -470.5 C 403.9963 -470.5 731.5 -259.84999 731.5 0 "/>
<path transform="matrix(.06,0,0,-.06,0,595)" stroke-width="100" stroke-linecap="round" stroke-linejoin="round" fill="none" stroke="#ffffff" d="M 9241 8037 L 9200 8055 L 9180 8062 L 9159 8068 L 9139 8071 L 9118 8073 L 9097 8072 L 9076 8069 L 9055 8065 L 9034 8059 L 9013 8051 L 8992 8042 L 8971 8032 L 8951 8020 L 8911 7995 L 8873 7968 L 8836 7940 L 8802 7909 L 8771 7878 L 8756 7861 L 8743 7844 L 8731 7827 L 8720 7809 L 8710 7791 L 8701 7772 L 8694 7753 L 8688 7733 L 8683 7713 L 8679 7693 L 8672 7651 L 8668 7608 L 8665 7564 L 8662 7519 L 8658 7473 L 8652 7427 L 8647 7404 L 8642 7382 L 8635 7361 L 8626 7342 L 8616 7326 L 8603 7311 L 8589 7299 L 8572 7289 L 8554 7280 L 8534 7272 L 8513 7264 L 8490 7256 L 8467 7247 L 8442 7237 L 8417 7225 L 8405 7219 L 8394 7212 L 8385 7206 L 8378 7199 L 8374 7193 L 8374 7187 L 8376 7182 L 8382 7177 L 8390 7172 L 8401 7168 L 8413 7164 L 8426 7161 L 8456 7156 L 8485 7153 L 8512 7153 L 8538 7155 L 8563 7158 L 8586 7164 L 8608 7171 L 8628 7181 L 8647 7191 L 8665 7203 L 8682 7217 L 8698 7231 L 8713 7247 L 8728 7263 L 8741 7280 L 8766 7317 L 8788 7355 L 8807 7395 L 8816 7415 L 8823 7436 L 8829 7456 L 8835 7477 L 8839 7499 L 8841 7520 L 8844 7563 L 8844 7650 L 8847 7694 L 8850 7716 L 8855 7737 L 8862 7759 L 8870 7780 L 8879 7800 L 8890 7820 L 8902 7838 L 8916 7856 L 8930 7872 L 8946 7886 L 8962 7899 L 8980 7910 L 8998 7919 L 9018 7928 L 9039 7935 L 9060 7941 L 9083 7946 L 9106 7951 L 9155 7959 L 9179 7963 L 9191 7966 L 9201 7970 L 9211 7975 L 9219 7980 L 9226 7987 L 9232 7995 L 9236 8004 L 9238 8014 L 9241 8037 L 9243 8038 L 9242 8037 L 9241 8036 L 9236 8031 L 9229 8026 L 9221 8020 L 9214 8017 L 9208 8015 L 9202 8015 L 9197 8017 L 9192 8019 L 9183 8025 L 9173 8031 L 9163 8035 L 9153 8038 L 9142 8040 L 9120 8042 L 9075 8042 L 9053 8040 L 9032 8036 L 9012 8029 L 8993 8018 L 8956 7995 L 8918 7972 L 8899 7961 L 8881 7949 L 8864 7936 L 8848 7921 L 8786 7858 L 8771 7842 L 8757 7825 L 8745 7808 L 8734 7789 L 8725 7769 L 8718 7748 L 8712 7727 L 8708 7705 L 8703 7662 L 8699 7619 L 8692 7576 L 8688 7554 L 8685 7532 L 8684 7511 L 8685 7489 L 8686 7445 L 8685 7423 L 8682 7401 L 8677 7380 L 8669 7359 L 8659 7340 L 8646 7322 L 8631 7305 L 8615 7291 L 8597 7279 L 8578 7268 L 8559 7259 L 8538 7250 L 8497 7235 L 8456 7219 L 8416 7200 L 8378 7180 "/>
<path transform="matrix(.0148356,.058136997,.058136997,-.0148356,443.31,194.23001)" stroke-width="100" stroke-linecap="round" stroke-linejoin="round" fill="none" stroke="#ffffff" d="M 731.5 0 C 731.5 259.84999 403.9963 470.5 0 470.5 C -403.9963 470.5 -731.5 259.84999 -731.5 0 C -731.5 -259.84999 -403.9963 -470.5 0 -470.5 C 403.9963 -470.5 731.5 -259.84999 731.5 0 "/>
<path transform="matrix(.06,0,0,-.06,0,595)" stroke-width="100" stroke-linecap="round" stroke-linejoin="round" fill="none" stroke="#ffffff" d="M 7353 7240 L 7315 7219 L 7296 7207 L 7279 7195 L 7264 7180 L 7250 7165 L 7238 7148 L 7227 7129 L 7218 7110 L 7210 7090 L 7203 7068 L 7197 7046 L 7193 7024 L 7189 7001 L 7185 6954 L 7183 6907 L 7183 6860 L 7186 6815 L 7192 6771 L 7196 6749 L 7202 6729 L 7208 6708 L 7215 6689 L 7224 6670 L 7233 6651 L 7244 6634 L 7256 6617 L 7268 6601 L 7282 6585 L 7312 6554 L 7343 6525 L 7376 6496 L 7410 6466 L 7444 6434 L 7476 6401 L 7492 6384 L 7506 6366 L 7518 6348 L 7528 6329 L 7534 6311 L 7538 6292 L 7538 6273 L 7537 6254 L 7533 6234 L 7527 6213 L 7520 6192 L 7513 6169 L 7506 6145 L 7499 6119 L 7493 6092 L 7490 6079 L 7489 6066 L 7488 6055 L 7489 6046 L 7492 6039 L 7496 6035 L 7502 6033 L 7509 6035 L 7518 6039 L 7528 6044 L 7538 6052 L 7549 6060 L 7571 6080 L 7591 6102 L 7608 6123 L 7623 6145 L 7635 6167 L 7644 6188 L 7652 6210 L 7657 6232 L 7660 6254 L 7662 6275 L 7661 6297 L 7660 6318 L 7657 6340 L 7652 6361 L 7647 6382 L 7633 6424 L 7617 6465 L 7597 6505 L 7586 6524 L 7574 6542 L 7561 6560 L 7548 6577 L 7534 6593 L 7518 6608 L 7486 6636 L 7417 6690 L 7384 6719 L 7369 6735 L 7355 6752 L 7342 6770 L 7330 6790 L 7320 6810 L 7311 6830 L 7304 6851 L 7298 6872 L 7294 6893 L 7293 6914 L 7293 6935 L 7295 6956 L 7298 6976 L 7304 6997 L 7311 7018 L 7319 7039 L 7328 7060 L 7339 7081 L 7363 7125 L 7374 7147 L 7378 7158 L 7382 7168 L 7384 7178 L 7385 7188 L 7384 7198 L 7381 7207 L 7376 7216 L 7370 7224 L 7353 7240 L 7354 7242 L 7354 7243 L 7354 7242 L 7355 7240 L 7355 7233 L 7355 7224 L 7355 7215 L 7353 7207 L 7350 7201 L 7347 7196 L 7342 7193 L 7338 7190 L 7327 7187 L 7317 7183 L 7307 7178 L 7299 7172 L 7290 7164 L 7275 7148 L 7248 7112 L 7236 7094 L 7227 7075 L 7220 7054 L 7217 7033 L 7212 6989 L 7207 6945 L 7204 6923 L 7203 6902 L 7203 6880 L 7205 6859 L 7217 6771 L 7221 6749 L 7226 6728 L 7232 6707 L 7240 6687 L 7250 6668 L 7262 6650 L 7276 6632 L 7290 6616 L 7322 6585 L 7353 6556 L 7383 6524 L 7398 6507 L 7413 6492 L 7430 6478 L 7447 6466 L 7483 6440 L 7500 6425 L 7515 6409 L 7529 6392 L 7540 6373 L 7549 6354 L 7556 6333 L 7560 6311 L 7561 6289 L 7560 6267 L 7557 6246 L 7553 6225 L 7547 6203 L 7534 6161 L 7522 6119 L 7512 6076 L 7504 6034 "/>
<path transform="matrix(.06,0,0,-.06,0,595)" stroke-width="100" stroke-linecap="round" stroke-linejoin="round" fill="none" stroke="#ffffff" d="M 11855 4899.5 C 11855 7488.887 9755.887 9588 7166.5 9588 C 4577.113 9588 2478 7488.887 2478 4899.5 C 2478 2310.1129 4577.113 211 7166.5 211 C 9755.887 211 11855 2310.1129 11855 4899.5 "/>
</g>
<clipPath id="cp1">
<path transform="matrix(.06,0,0,-.06,0,595)" d="M 0 0 L 14031 0 L 14031 9921 L 0 9921 L 0 0 "/>
</clipPath>
<g clip-path="url(#cp1)">
<path transform="matrix(.06,0,0,-.06,0,595)" stroke-width="0" stroke-linecap="round" stroke-linejoin="round" fill="none" stroke="#000000" d="M 14022 0 L 14022 9891 L 0 9891 "/>
</g>
</g>
</g>
</svg>
