<?xml version="1.0" encoding="UTF-8" standalone="no"?>
<!DOCTYPE svg PUBLIC "-//W3C//DTD SVG 1.1//EN" "http://www.w3.org/Graphics/SVG/1.1/DTD/svg11.dtd">
<svg xmlns="http://www.w3.org/2000/svg" xmlns:xlink="http://www.w3.org/1999/xlink" version="1.1" width="842pt" height="595pt" viewBox="0 0 842 595">
<g enable-background="new">
<clipPath id="cp0">
<path transform="matrix(.06,0,0,-.06,0,595)" d="M 0 0 L 14021 0 L 14021 9890 L 0 9890 L 0 0 "/>
</clipPath>
<g clip-path="url(#cp0)">
<g id="Layer-1" data-name="0">
<path transform="matrix(.06,0,0,-.06,0,595)" stroke-width="100" stroke-linecap="round" stroke-linejoin="round" fill="none" stroke="#ffffff" d="M 4220 5608 L 5394 1305 L 8729 1305 L 9900 5608 "/>
<path transform="matrix(.06,0,0,-.06,0,595)" stroke-width="100" stroke-linecap="round" stroke-linejoin="round" fill="none" stroke="#ffffff" d="M 7060 4933 L 7230 4934 L 7399 4936 L 7483 4938 L 7568 4941 L 7653 4945 L 7740 4950 L 7829 4957 L 7919 4965 L 8012 4975 L 8108 4987 L 8207 5000 L 8258 5008 L 8310 5016 L 8363 5025 L 8417 5034 L 8472 5044 L 8527 5054 L 8584 5065 L 8642 5077 L 8759 5102 L 8878 5129 L 8996 5159 L 9113 5190 L 9227 5222 L 9282 5239 L 9336 5257 L 9389 5274 L 9440 5292 L 9489 5310 L 9536 5329 L 9582 5348 L 9625 5367 L 9665 5386 L 9703 5406 L 9738 5425 L 9770 5445 L 9799 5465 L 9825 5485 L 9847 5506 L 9866 5526 L 9881 5547 L 9887 5557 L 9891 5567 L 9895 5577 L 9898 5588 L 9900 5598 L 9900 5608 L 9900 5618 L 9898 5629 L 9895 5639 L 9891 5649 L 9887 5660 L 9881 5670 L 9866 5690 L 9847 5711 L 9825 5731 L 9799 5751 L 9770 5771 L 9738 5791 L 9703 5811 L 9665 5830 L 9625 5850 L 9582 5869 L 9536 5887 L 9489 5906 L 9440 5924 L 9389 5942 L 9336 5960 L 9282 5977 L 9227 5994 L 9113 6027 L 8996 6058 L 8878 6087 L 8759 6114 L 8642 6139 L 8584 6151 L 8527 6162 L 8472 6173 L 8417 6183 L 8363 6192 L 8310 6201 L 8258 6209 L 8207 6216 L 8108 6230 L 8012 6241 L 7919 6251 L 7829 6259 L 7740 6266 L 7653 6271 L 7568 6275 L 7483 6278 L 7399 6280 L 7230 6282 L 7060 6283 L 6890 6282 L 6721 6280 L 6637 6278 L 6553 6275 L 6467 6271 L 6380 6266 L 6291 6259 L 6201 6251 L 6108 6241 L 6012 6230 L 5913 6216 L 5862 6209 L 5810 6201 L 5757 6192 L 5703 6183 L 5649 6173 L 5593 6162 L 5536 6151 L 5478 6139 L 5361 6114 L 5242 6087 L 5124 6058 L 5007 6027 L 4893 5994 L 4838 5977 L 4784 5960 L 4731 5942 L 4680 5924 L 4631 5906 L 4584 5887 L 4538 5869 L 4495 5850 L 4455 5830 L 4417 5811 L 4382 5791 L 4350 5771 L 4321 5751 L 4295 5731 L 4273 5711 L 4254 5690 L 4239 5670 L 4233 5660 L 4229 5649 L 4225 5639 L 4222 5629 L 4220 5618 L 4220 5608 L 4220 5598 L 4222 5588 L 4225 5577 L 4229 5567 L 4233 5557 L 4239 5547 L 4254 5526 L 4273 5506 L 4295 5485 L 4321 5465 L 4350 5445 L 4382 5425 L 4417 5406 L 4455 5386 L 4495 5367 L 4538 5348 L 4584 5329 L 4631 5310 L 4680 5292 L 4731 5274 L 4784 5257 L 4838 5239 L 4893 5222 L 5007 5190 L 5124 5159 L 5242 5129 L 5361 5102 L 5478 5077 L 5536 5065 L 5593 5054 L 5649 5044 L 5703 5034 L 5757 5025 L 5810 5016 L 5862 5008 L 5913 5000 L 6012 4987 L 6108 4975 L 6201 4965 L 6291 4957 L 6380 4950 L 6467 4945 L 6553 4941 L 6637 4938 L 6721 4936 L 6890 4934 L 7060 4933 "/>
<path transform="matrix(.06,0,0,-.06,0,595)" stroke-width="100" stroke-linecap="round" stroke-linejoin="round" fill="none" stroke="#ffffff" d="M 7061 909 L 7161 909 L 7260 910 L 7359 913 L 7409 916 L 7461 919 L 7513 923 L 7566 928 L 7620 934 L 7677 940 L 7735 948 L 7795 958 L 7858 968 L 7923 980 L 7990 993 L 8059 1008 L 8129 1024 L 8198 1041 L 8267 1059 L 8333 1079 L 8398 1099 L 8458 1120 L 8487 1130 L 8515 1141 L 8542 1152 L 8567 1164 L 8591 1175 L 8613 1186 L 8634 1198 L 8653 1210 L 8670 1221 L 8685 1233 L 8698 1245 L 8709 1257 L 8717 1269 L 8724 1281 L 8728 1293 L 8729 1305 L 8728 1317 L 8724 1329 L 8717 1341 L 8709 1353 L 8698 1365 L 8685 1377 L 8670 1389 L 8653 1401 L 8634 1413 L 8613 1424 L 8591 1436 L 8567 1447 L 8542 1458 L 8515 1469 L 8487 1480 L 8458 1491 L 8398 1512 L 8333 1532 L 8267 1551 L 8198 1569 L 8129 1586 L 8059 1602 L 7990 1617 L 7923 1631 L 7858 1643 L 7795 1653 L 7735 1662 L 7677 1670 L 7620 1677 L 7566 1683 L 7513 1687 L 7461 1691 L 7409 1694 L 7359 1697 L 7260 1700 L 7161 1701 L 7061 1701 L 6961 1701 L 6862 1700 L 6763 1697 L 6713 1694 L 6662 1691 L 6610 1687 L 6557 1683 L 6502 1677 L 6446 1670 L 6387 1662 L 6327 1653 L 6265 1643 L 6200 1631 L 6132 1617 L 6063 1602 L 5994 1586 L 5924 1569 L 5856 1551 L 5789 1532 L 5725 1512 L 5664 1491 L 5635 1480 L 5607 1469 L 5581 1458 L 5555 1447 L 5532 1436 L 5509 1424 L 5489 1413 L 5470 1401 L 5453 1389 L 5438 1377 L 5425 1365 L 5414 1353 L 5405 1341 L 5399 1329 L 5395 1317 L 5394 1305 L 5395 1293 L 5399 1281 L 5405 1269 L 5414 1257 L 5425 1245 L 5438 1233 L 5453 1221 L 5470 1210 L 5489 1198 L 5509 1186 L 5532 1175 L 5555 1164 L 5581 1152 L 5607 1141 L 5635 1130 L 5664 1120 L 5725 1099 L 5789 1079 L 5856 1059 L 5924 1041 L 5994 1024 L 6063 1008 L 6132 993 L 6200 980 L 6265 968 L 6327 958 L 6387 948 L 6446 940 L 6502 934 L 6557 928 L 6610 923 L 6662 919 L 6713 916 L 6763 913 L 6862 910 L 6961 909 L 7061 909 "/>
<path transform="matrix(.06,0,0,-.06,0,595)" stroke-width="100" stroke-linecap="round" stroke-linejoin="round" fill="none" stroke="#ffffff" d="M 4220 5608 L 9900 5608 "/>
<path transform="matrix(.06,0,0,-.06,0,595)" stroke-width="100" stroke-linecap="round" stroke-linejoin="round" fill="none" stroke="#ffffff" d="M 7060 5608 L 7060 1305 "/>
<path transform="matrix(.06,0,0,-.06,0,595)" stroke-width="100" stroke-linecap="round" stroke-linejoin="round" fill="none" stroke="#ffffff" d="M 4807 3457 L 9315 3457 "/>
<path transform="matrix(.06,0,0,-.06,0,595)" stroke-width="100" stroke-linecap="round" stroke-linejoin="round" fill="none" stroke="#ffffff" d="M 7060 3991 L 6925 3991 L 6792 3989 L 6658 3985 L 6590 3982 L 6521 3978 L 6451 3973 L 6379 3966 L 6306 3959 L 6230 3949 L 6151 3939 L 6070 3926 L 5985 3912 L 5942 3904 L 5897 3896 L 5807 3878 L 5714 3858 L 5620 3836 L 5526 3813 L 5434 3789 L 5343 3763 L 5299 3749 L 5257 3735 L 5215 3722 L 5174 3707 L 5135 3693 L 5098 3678 L 5062 3663 L 5028 3648 L 4996 3633 L 4966 3617 L 4938 3602 L 4912 3586 L 4889 3570 L 4869 3554 L 4851 3538 L 4837 3522 L 4825 3506 L 4816 3489 L 4811 3473 L 4809 3457 L 4811 3440 L 4816 3424 L 4825 3408 L 4837 3392 L 4851 3376 L 4869 3359 L 4889 3343 L 4912 3328 L 4938 3312 L 4966 3296 L 4996 3281 L 5028 3265 L 5062 3250 L 5098 3235 L 5135 3221 L 5174 3206 L 5215 3192 L 5257 3178 L 5299 3164 L 5343 3151 L 5434 3125 L 5526 3100 L 5620 3077 L 5714 3056 L 5807 3036 L 5897 3018 L 5985 3002 L 6070 2987 L 6151 2975 L 6230 2964 L 6306 2955 L 6379 2947 L 6451 2941 L 6521 2935 L 6590 2931 L 6658 2928 L 6792 2924 L 6925 2922 L 7060 2922 "/>
<path transform="matrix(.06,0,0,-.06,0,595)" stroke-width="100" stroke-linecap="round" stroke-linejoin="round" fill="none" stroke="#ffffff" d="M 7061 3991 L 7196 3991 L 7329 3989 L 7463 3985 L 7531 3982 L 7600 3978 L 7670 3973 L 7742 3966 L 7816 3959 L 7892 3949 L 7970 3939 L 8051 3926 L 8136 3912 L 8179 3904 L 8224 3896 L 8315 3878 L 8408 3858 L 8501 3836 L 8595 3813 L 8688 3789 L 8778 3763 L 8822 3749 L 8865 3735 L 8906 3722 L 8947 3707 L 8986 3693 L 9023 3678 L 9059 3663 L 9093 3648 L 9126 3633 L 9156 3617 L 9183 3602 L 9209 3586 L 9232 3570 L 9252 3554 L 9270 3538 L 9285 3522 L 9296 3506 L 9305 3489 L 9310 3473 L 9312 3457 L 9310 3440 L 9305 3424 L 9296 3408 L 9285 3392 L 9270 3376 L 9252 3359 L 9232 3343 L 9209 3328 L 9183 3312 L 9156 3296 L 9126 3281 L 9093 3265 L 9059 3250 L 9023 3235 L 8986 3221 L 8947 3206 L 8906 3192 L 8865 3178 L 8822 3164 L 8778 3151 L 8688 3125 L 8595 3100 L 8501 3077 L 8408 3056 L 8315 3036 L 8224 3018 L 8136 3002 L 8051 2987 L 7970 2975 L 7892 2964 L 7816 2955 L 7742 2947 L 7670 2941 L 7600 2935 L 7531 2931 L 7463 2928 L 7329 2924 L 7196 2922 L 7061 2922 L 9312 3457 "/>
<path transform="matrix(.06,0,0,-.06,0,595)" stroke-width="100" stroke-linecap="round" stroke-linejoin="round" fill="none" stroke="#ffffff" d="M 4809 3457 L 7060 3991 "/>
<path transform="matrix(.06,0,0,-.06,0,595)" stroke-width="100" stroke-linecap="round" stroke-linejoin="round" fill="none" stroke="#ffffff" d="M 7061 3457 L 9182 2968 "/>
<path transform="matrix(.06,0,0,-.06,0,595)" stroke-width="100" stroke-linecap="round" stroke-linejoin="round" fill="none" stroke="#ffffff" d="M 7062 1305 L 8185 1038 L 8970 5152 "/>
<path transform="matrix(.06,0,0,-.06,0,595)" stroke-width="100" stroke-linecap="round" stroke-linejoin="round" fill="none" stroke="#ffffff" d="M 7061 2922 L 8186 3189 "/>
<path transform="matrix(.06,0,0,-.06,0,595)" stroke-width="100" stroke-linecap="round" stroke-linejoin="round" fill="none" stroke="#ffffff" d="M 7061 3457 L 8321 2558 "/>
<path transform="matrix(.06,0,0,-.06,0,595)" stroke-width="100" stroke-linecap="round" stroke-linejoin="round" fill="none" stroke="#ffffff" d="M 7062 1305 L 7588 930 L 7954 4969 "/>
<path transform="matrix(.06,0,0,-.06,0,595)" stroke-width="100" stroke-linecap="round" stroke-linejoin="round" fill="none" stroke="#ffffff" d="M 7771 2949 L 8578 3096 "/>
<path transform="matrix(.06,0,0,-.06,0,595)" stroke-width="100" stroke-linecap="round" stroke-linejoin="round" fill="none" stroke="#ffffff" d="M 7061 3457 L 8828 2768 "/>
<path transform="matrix(.06,0,0,-.06,0,595)" stroke-width="100" stroke-linecap="round" stroke-linejoin="round" fill="none" stroke="#ffffff" d="M 8729 1305 L 9315 3457 L 9886 5556 "/>
<path transform="matrix(.06,0,0,-.06,0,595)" stroke-width="100" stroke-linecap="round" stroke-linejoin="round" fill="none" stroke="#ffffff" d="M 7771 2949 L 8185 1038 "/>
<path transform="matrix(.06,0,0,-.06,0,595)" stroke-width="100" stroke-linecap="round" stroke-linejoin="round" fill="none" stroke="#ffffff" d="M 7588 930 L 8578 3095 "/>
<path transform="matrix(.06,0,0,-.06,0,595)" stroke-width="100" stroke-linecap="round" stroke-linejoin="round" fill="none" stroke="#ffffff" d="M 7771 2949 L 8970 5152 "/>
<path transform="matrix(.06,0,0,-.06,0,595)" stroke-width="100" stroke-linecap="round" stroke-linejoin="round" fill="none" stroke="#ffffff" d="M 7954 4969 L 8578 3096 "/>
<path transform="matrix(.06,0,0,-.06,0,595)" stroke-width="100" stroke-linecap="round" stroke-linejoin="round" fill="none" stroke="#ffffff" d="M 8199 3013 L 8828 2768 "/>
<path transform="matrix(.06,0,0,-.06,0,595)" stroke-width="100" stroke-linecap="round" stroke-linejoin="round" fill="none" stroke="#ffffff" d="M 8009 1851 L 8239 1762 "/>
<path transform="matrix(.06,0,0,-.06,0,595)" stroke-width="100" stroke-linecap="round" stroke-linejoin="round" fill="none" stroke="#ffffff" d="M 8302 3925 L 8531 3835 L 8596 3695 L 8657 3555 L 8687 3485 L 8714 3415 L 8739 3346 L 8762 3277 L 8783 3209 L 8800 3140 L 8815 3072 L 8825 3005 L 8829 2972 L 8832 2938 L 8833 2905 L 8834 2872 L 8833 2839 L 8832 2806 L 8829 2774 L 8824 2741 L 8819 2709 L 8812 2677 L 8804 2645 L 8795 2613 L 8785 2581 L 8774 2550 L 8748 2487 L 8719 2425 L 8686 2363 L 8650 2302 L 8612 2241 L 8571 2180 L 8527 2120 L 8482 2060 L 8435 2000 L 8338 1881 L 8239 1762 "/>
<path transform="matrix(.06,0,0,-.06,0,595)" stroke-width="100" stroke-linecap="round" stroke-linejoin="round" fill="none" stroke="#ffffff" d="M 7061 3457 L 7062 1305 "/>
<path transform="matrix(.06,0,0,-.06,0,595)" stroke-width="100" stroke-linecap="round" stroke-linejoin="round" fill="none" stroke="#ffffff" d="M 7680 1940 L 7880 1797 "/>
<path transform="matrix(.06,0,0,-.06,0,595)" stroke-width="100" stroke-linecap="round" stroke-linejoin="round" fill="none" stroke="#ffffff" d="M 7060 3457 L 7060 5608 "/>
<path transform="matrix(.06,0,0,-.06,0,595)" stroke-width="100" stroke-linecap="round" stroke-linejoin="round" fill="none" stroke="#ffffff" d="M 7862 3953 L 8063 3817 L 8118 3680 L 8171 3543 L 8196 3475 L 8221 3407 L 8243 3339 L 8264 3272 L 8283 3205 L 8300 3138 L 8315 3071 L 8327 3005 L 8337 2940 L 8343 2875 L 8346 2810 L 8345 2746 L 8341 2683 L 8338 2651 L 8333 2620 L 8327 2589 L 8321 2558 L 8313 2527 L 8304 2497 L 8283 2436 L 8258 2376 L 8230 2317 L 8199 2258 L 8165 2199 L 8129 2141 L 8091 2083 L 8051 2026 L 8009 1968 L 7967 1911 L 7880 1797 L 8239 1762 "/>
<path transform="matrix(.06,0,0,-.06,0,595)" stroke-width="100" stroke-linecap="round" stroke-linejoin="round" fill="none" stroke="#ffffff" d="M 8063 3817 L 8531 3835 "/>
<path transform="matrix(.06,0,0,-.06,0,595)" stroke-width="100" stroke-linecap="round" stroke-linejoin="round" fill="none" stroke="#ffffff" d="M 7725 2446 L 7680 1940 "/>
<path transform="matrix(.06,0,0,-.06,0,595)" stroke-width="100" stroke-linecap="round" stroke-linejoin="round" fill="none" stroke="#ffffff" d="M 7862 3953 L 7823 3452 "/>
<path transform="matrix(.06,0,0,-.06,0,595)" stroke-width="100" stroke-linecap="round" stroke-linejoin="round" fill="none" stroke="#ffffff" d="M 7771 2949 L 8321 2558 "/>
<path transform="matrix(.06,0,0,-.06,0,595)" stroke-width="100" stroke-linecap="round" stroke-linejoin="round" fill="none" stroke="#ffffff" d="M 7842 3702 L 7899 3584 L 7954 3465 L 7980 3406 L 8005 3347 L 8028 3289 L 8050 3230 L 8069 3172 L 8087 3114 L 8101 3056 L 8113 2999 L 8123 2942 L 8128 2886 L 8131 2830 L 8129 2774 L 8127 2746 L 8124 2719 L 8120 2692 L 8114 2665 L 8108 2637 L 8100 2611 L 8083 2557 L 8062 2504 L 8037 2451 L 8010 2399 L 7980 2347 L 7948 2296 L 7913 2244 L 7877 2193 L 7839 2143 L 7761 2041 L 7680 1940 "/>
<path transform="matrix(.06,0,0,-.06,0,595)" stroke-width="100" stroke-linecap="round" stroke-linejoin="round" fill="none" stroke="#ffffff" d="M 7862 3953 L 8302 3925 "/>
<path transform="matrix(.06,0,0,-.06,0,595)" stroke-width="100" stroke-linecap="round" stroke-linejoin="round" fill="none" stroke="#ffffff" d="M 4810 3457 L 7060 2922 "/>
<path transform="matrix(.06,0,0,-.06,0,595)" stroke-width="100" stroke-linecap="round" stroke-linejoin="round" fill="none" stroke="#ffffff" d="M 7061 3991 L 9312 3457 "/>
<path transform="matrix(-.009485999,.0592452,.0592452,.009485999,476.25,82.21002)" stroke-width="100" stroke-linecap="round" stroke-linejoin="round" fill="none" stroke="#ffffff" d="M 731.5 0 C 731.5 259.84999 403.9963 470.5 0 470.5 C -403.9963 470.5 -731.5 259.84999 -731.5 0 C -731.5 -259.84999 -403.9963 -470.5 0 -470.5 C 403.9963 -470.5 731.5 -259.84999 731.5 0 "/>
<path transform="matrix(.06,0,0,-.06,0,595)" stroke-width="100" stroke-linecap="round" stroke-linejoin="round" fill="none" stroke="#ffffff" d="M 8129 9075 L 8085 9071 L 8063 9068 L 8043 9063 L 8023 9056 L 8004 9047 L 7986 9036 L 7969 9024 L 7952 9010 L 7937 8994 L 7922 8977 L 7909 8959 L 7896 8940 L 7883 8921 L 7860 8879 L 7840 8837 L 7822 8794 L 7806 8751 L 7794 8708 L 7790 8687 L 7786 8666 L 7784 8645 L 7783 8624 L 7783 8603 L 7785 8583 L 7787 8562 L 7792 8542 L 7797 8522 L 7803 8502 L 7818 8462 L 7835 8423 L 7854 8383 L 7873 8342 L 7892 8300 L 7908 8257 L 7915 8234 L 7921 8212 L 7925 8191 L 7927 8170 L 7926 8150 L 7922 8132 L 7915 8114 L 7905 8097 L 7894 8081 L 7880 8064 L 7866 8047 L 7850 8028 L 7834 8009 L 7817 7989 L 7800 7966 L 7793 7955 L 7787 7944 L 7782 7934 L 7779 7925 L 7778 7918 L 7781 7912 L 7786 7909 L 7793 7907 L 7803 7907 L 7814 7908 L 7826 7911 L 7840 7915 L 7868 7924 L 7894 7936 L 7919 7949 L 7941 7963 L 7960 7978 L 7978 7994 L 7993 8011 L 8007 8029 L 8018 8048 L 8028 8067 L 8037 8087 L 8044 8107 L 8049 8128 L 8054 8150 L 8057 8171 L 8061 8215 L 8062 8259 L 8060 8303 L 8057 8325 L 8054 8347 L 8049 8368 L 8044 8389 L 8037 8410 L 8029 8430 L 8010 8468 L 7968 8545 L 7950 8585 L 7942 8605 L 7936 8627 L 7932 8649 L 7929 8671 L 7927 8693 L 7927 8716 L 7929 8738 L 7932 8759 L 7937 8780 L 7944 8800 L 7952 8819 L 7962 8838 L 7974 8855 L 7987 8872 L 8001 8888 L 8017 8904 L 8034 8919 L 8052 8935 L 8092 8965 L 8111 8981 L 8119 8989 L 8126 8998 L 8133 9006 L 8137 9015 L 8140 9024 L 8141 9034 L 8140 9044 L 8138 9054 L 8129 9075 L 8130 9077 L 8130 9076 L 8130 9074 L 8127 9068 L 8124 9060 L 8120 9051 L 8115 9045 L 8110 9040 L 8105 9037 L 8100 9036 L 8095 9036 L 8084 9037 L 8073 9037 L 8062 9036 L 8051 9034 L 8041 9031 L 8021 9021 L 7981 8999 L 7963 8988 L 7947 8974 L 7933 8957 L 7921 8939 L 7900 8900 L 7877 8862 L 7866 8844 L 7856 8824 L 7848 8804 L 7841 8784 L 7817 8699 L 7812 8677 L 7808 8656 L 7805 8634 L 7805 8613 L 7807 8591 L 7810 8570 L 7816 8548 L 7823 8527 L 7840 8487 L 7857 8447 L 7871 8406 L 7878 8385 L 7886 8365 L 7896 8346 L 7907 8327 L 7930 8289 L 7939 8269 L 7947 8248 L 7953 8227 L 7956 8205 L 7956 8184 L 7954 8162 L 7949 8140 L 7942 8120 L 7932 8100 L 7921 8082 L 7908 8064 L 7894 8047 L 7866 8013 L 7838 7979 L 7812 7944 L 7787 7908 "/>
<path transform="matrix(-.036950403,.047272199,.047272199,.036950403,522.75,132.91)" stroke-width="100" stroke-linecap="round" stroke-linejoin="round" fill="none" stroke="#ffffff" d="M 731.5 0 C 731.5 259.84999 403.9963 470.5 0 470.5 C -403.9963 470.5 -731.5 259.84999 -731.5 0 C -731.5 -259.84999 -403.9963 -470.5 0 -470.5 C 403.9963 -470.5 731.5 -259.84999 731.5 0 "/>
<path transform="matrix(.06,0,0,-.06,0,595)" stroke-width="100" stroke-linecap="round" stroke-linejoin="round" fill="none" stroke="#ffffff" d="M 9135 8071 L 9095 8089 L 9074 8096 L 9054 8102 L 9033 8106 L 9012 8107 L 8991 8106 L 8970 8104 L 8949 8099 L 8928 8093 L 8907 8085 L 8886 8076 L 8866 8066 L 8845 8055 L 8805 8030 L 8767 8003 L 8730 7974 L 8696 7944 L 8665 7912 L 8651 7895 L 8637 7879 L 8625 7861 L 8614 7843 L 8604 7825 L 8596 7806 L 8588 7787 L 8582 7768 L 8577 7748 L 8573 7727 L 8567 7685 L 8563 7642 L 8560 7598 L 8557 7553 L 8553 7507 L 8546 7461 L 8542 7439 L 8536 7416 L 8529 7396 L 8521 7377 L 8510 7360 L 8497 7346 L 8483 7334 L 8466 7323 L 8448 7314 L 8428 7306 L 8407 7298 L 8385 7290 L 8361 7281 L 8336 7271 L 8311 7259 L 8299 7253 L 8288 7247 L 8279 7240 L 8272 7234 L 8268 7228 L 8268 7222 L 8271 7216 L 8276 7211 L 8285 7206 L 8295 7202 L 8307 7198 L 8321 7195 L 8350 7190 L 8379 7188 L 8407 7187 L 8433 7189 L 8457 7193 L 8480 7198 L 8502 7206 L 8522 7215 L 8542 7225 L 8560 7237 L 8577 7251 L 8593 7265 L 8608 7281 L 8622 7297 L 8635 7314 L 8660 7351 L 8682 7389 L 8702 7429 L 8710 7449 L 8717 7470 L 8724 7491 L 8729 7512 L 8733 7533 L 8736 7554 L 8738 7598 L 8738 7685 L 8741 7728 L 8745 7750 L 8750 7772 L 8756 7793 L 8764 7814 L 8774 7835 L 8785 7854 L 8797 7873 L 8810 7890 L 8824 7906 L 8840 7920 L 8857 7933 L 8874 7944 L 8893 7954 L 8912 7962 L 8933 7969 L 8954 7975 L 8977 7981 L 9000 7985 L 9050 7993 L 9074 7998 L 9085 8001 L 9095 8004 L 9105 8009 L 9113 8015 L 9120 8021 L 9126 8029 L 9130 8038 L 9133 8049 L 9135 8071 L 9137 8072 L 9137 8071 L 9135 8070 L 9130 8065 L 9123 8060 L 9116 8055 L 9108 8051 L 9102 8050 L 9096 8050 L 9091 8051 L 9086 8053 L 9077 8059 L 9068 8065 L 9058 8069 L 9047 8073 L 9037 8075 L 9014 8076 L 8969 8076 L 8947 8075 L 8927 8070 L 8907 8063 L 8887 8053 L 8850 8029 L 8812 8007 L 8793 7995 L 8775 7983 L 8758 7970 L 8742 7955 L 8680 7892 L 8665 7876 L 8651 7859 L 8639 7842 L 8628 7823 L 8619 7803 L 8612 7783 L 8606 7761 L 8602 7740 L 8597 7696 L 8593 7653 L 8586 7610 L 8582 7588 L 8579 7567 L 8579 7545 L 8579 7523 L 8580 7479 L 8579 7457 L 8576 7435 L 8571 7414 L 8563 7394 L 8553 7374 L 8540 7356 L 8526 7340 L 8509 7325 L 8491 7313 L 8473 7302 L 8453 7293 L 8433 7284 L 8391 7269 L 8350 7253 L 8311 7234 L 8272 7215 "/>
<path transform="matrix(.0148356,.058136997,.058136997,-.0148356,436.94999,192.19)" stroke-width="100" stroke-linecap="round" stroke-linejoin="round" fill="none" stroke="#ffffff" d="M 731.5 0 C 731.5 259.84999 403.9963 470.5 0 470.5 C -403.9963 470.5 -731.5 259.84999 -731.5 0 C -731.5 -259.84999 -403.9963 -470.5 0 -470.5 C 403.9963 -470.5 731.5 -259.84999 731.5 0 "/>
<path transform="matrix(.06,0,0,-.06,0,595)" stroke-width="100" stroke-linecap="round" stroke-linejoin="round" fill="none" stroke="#ffffff" d="M 7248 7275 L 7209 7253 L 7191 7242 L 7173 7229 L 7158 7215 L 7144 7199 L 7132 7182 L 7121 7164 L 7112 7144 L 7104 7124 L 7097 7103 L 7092 7081 L 7087 7058 L 7084 7035 L 7079 6988 L 7077 6941 L 7077 6894 L 7080 6849 L 7086 6805 L 7091 6784 L 7096 6763 L 7102 6743 L 7110 6723 L 7118 6704 L 7127 6686 L 7138 6668 L 7150 6651 L 7163 6635 L 7176 6619 L 7206 6589 L 7238 6559 L 7271 6530 L 7304 6500 L 7338 6469 L 7370 6436 L 7386 6418 L 7400 6400 L 7412 6382 L 7422 6364 L 7429 6345 L 7432 6326 L 7433 6308 L 7431 6288 L 7427 6268 L 7421 6248 L 7415 6226 L 7407 6203 L 7400 6179 L 7393 6153 L 7387 6126 L 7384 6113 L 7383 6100 L 7382 6089 L 7383 6080 L 7386 6073 L 7390 6069 L 7396 6068 L 7404 6069 L 7412 6073 L 7422 6079 L 7433 6086 L 7443 6095 L 7465 6115 L 7485 6136 L 7502 6158 L 7517 6179 L 7529 6201 L 7538 6223 L 7546 6244 L 7551 6266 L 7554 6288 L 7556 6309 L 7556 6331 L 7554 6353 L 7551 6374 L 7547 6395 L 7541 6416 L 7527 6458 L 7511 6499 L 7491 6539 L 7480 6558 L 7468 6576 L 7456 6594 L 7442 6611 L 7428 6627 L 7413 6642 L 7380 6671 L 7311 6724 L 7278 6753 L 7263 6769 L 7249 6786 L 7236 6805 L 7224 6824 L 7214 6844 L 7205 6864 L 7198 6885 L 7192 6906 L 7189 6928 L 7187 6949 L 7187 6969 L 7189 6990 L 7193 7011 L 7198 7031 L 7205 7052 L 7213 7073 L 7223 7094 L 7233 7115 L 7257 7159 L 7268 7181 L 7273 7192 L 7276 7202 L 7278 7213 L 7279 7223 L 7278 7232 L 7275 7242 L 7270 7250 L 7264 7259 L 7248 7275 "/>
<path transform="matrix(.06,0,0,-.06,0,595)" stroke-width="100" stroke-linecap="round" stroke-linejoin="round" fill="none" stroke="#ffffff" d="M 7398 6068 L 7406 6111 L 7416 6153 L 7428 6196 L 7441 6238 L 7447 6259 L 7452 6280 L 7455 6302 L 7456 6323 L 7454 6345 L 7450 6367 L 7444 6388 L 7435 6408 L 7423 6426 L 7409 6443 L 7394 6459 L 7377 6474 L 7342 6500 L 7324 6513 L 7307 6526 L 7292 6542 L 7277 6558 L 7247 6590 L 7216 6620 L 7185 6650 L 7170 6667 L 7156 6684 L 7144 6702 L 7134 6721 L 7126 6741 L 7120 6762 L 7115 6784 L 7111 6805 L 7099 6893 L 7098 6914 L 7097 6936 L 7099 6958 L 7101 6979 L 7107 7023 L 7111 7067 L 7115 7089 L 7121 7109 L 7130 7128 L 7142 7146 L 7170 7182 L 7185 7199 L 7193 7206 L 7202 7212 L 7211 7217 L 7221 7221 L 7232 7225 L 7237 7227 L 7241 7230 L 7244 7235 L 7247 7241 L 7249 7249 L 7249 7258 L 7249 7267 L 7249 7274 L 7248 7276 L 7248 7277 L 7248 7276 L 7248 7274 "/>
</g>
<clipPath id="cp1">
<path transform="matrix(.06,0,0,-.06,0,595)" d="M 0 0 L 14031 0 L 14031 9921 L 0 9921 L 0 0 "/>
</clipPath>
<g clip-path="url(#cp1)">
<path transform="matrix(.06,0,0,-.06,0,595)" stroke-width="0" stroke-linecap="round" stroke-linejoin="round" fill="none" stroke="#000000" d="M 14022 0 L 14022 9891 L 0 9891 "/>
</g>
</g>
</g>
</svg>
