<?xml version="1.0" encoding="UTF-8" standalone="no"?>
<!DOCTYPE svg PUBLIC "-//W3C//DTD SVG 1.1//EN" "http://www.w3.org/Graphics/SVG/1.1/DTD/svg11.dtd">
<svg xmlns="http://www.w3.org/2000/svg" xmlns:xlink="http://www.w3.org/1999/xlink" version="1.1" width="842pt" height="595pt" viewBox="0 0 842 595">
<g enable-background="new">
<clipPath id="cp0">
<path transform="matrix(.06,0,0,-.06,0,595)" d="M 0 0 L 14021 0 L 14021 9890 L 0 9890 L 0 0 "/>
</clipPath>
<g clip-path="url(#cp0)">
<g id="Layer-1" data-name="0">
<path transform="matrix(.06,0,0,-.06,0,595)" stroke-width="66" stroke-linecap="round" stroke-linejoin="round" fill="none" stroke="#000000" d="M 3825 5536 L 5194 516 L 9086 516 L 10452 5536 "/>
<path transform="matrix(.06,0,0,-.06,0,595)" stroke-width="66" stroke-linecap="round" stroke-linejoin="round" fill="none" stroke="#000000" d="M 7139 4749 L 7239 4749 L 7337 4749 L 7534 4752 L 7632 4754 L 7731 4758 L 7831 4763 L 7932 4769 L 8035 4777 L 8141 4786 L 8250 4798 L 8305 4804 L 8362 4811 L 8419 4819 L 8477 4827 L 8537 4836 L 8597 4845 L 8659 4856 L 8721 4866 L 8785 4878 L 8851 4890 L 8917 4903 L 8984 4917 L 9121 4946 L 9259 4978 L 9397 5012 L 9534 5048 L 9600 5067 L 9666 5086 L 9731 5106 L 9794 5126 L 9855 5147 L 9915 5168 L 9973 5189 L 10028 5211 L 10081 5233 L 10131 5255 L 10178 5277 L 10222 5300 L 10263 5323 L 10301 5346 L 10335 5370 L 10365 5393 L 10378 5405 L 10391 5417 L 10402 5429 L 10412 5440 L 10421 5452 L 10429 5464 L 10436 5476 L 10442 5488 L 10446 5500 L 10450 5512 L 10452 5524 L 10452 5536 L 10452 5548 L 10450 5560 L 10446 5572 L 10442 5584 L 10436 5596 L 10429 5608 L 10421 5620 L 10412 5632 L 10402 5644 L 10391 5656 L 10378 5668 L 10365 5679 L 10335 5703 L 10301 5726 L 10263 5750 L 10222 5773 L 10178 5795 L 10131 5818 L 10081 5840 L 10028 5862 L 9973 5884 L 9915 5905 L 9855 5926 L 9794 5947 L 9731 5967 L 9666 5987 L 9600 6006 L 9534 6025 L 9397 6061 L 9259 6095 L 9121 6127 L 8984 6156 L 8917 6170 L 8851 6183 L 8785 6195 L 8721 6206 L 8659 6217 L 8597 6227 L 8537 6237 L 8477 6246 L 8419 6254 L 8362 6261 L 8305 6268 L 8250 6275 L 8141 6286 L 8035 6296 L 7932 6303 L 7831 6310 L 7731 6314 L 7632 6318 L 7534 6320 L 7337 6323 L 7239 6323 L 7139 6323 L 7039 6323 L 6940 6323 L 6744 6320 L 6645 6318 L 6547 6314 L 6447 6310 L 6345 6303 L 6242 6296 L 6136 6286 L 6027 6275 L 5972 6268 L 5915 6261 L 5858 6254 L 5800 6246 L 5741 6237 L 5680 6227 L 5619 6217 L 5556 6206 L 5492 6195 L 5427 6183 L 5360 6170 L 5293 6156 L 5156 6127 L 5018 6095 L 4880 6061 L 4744 6025 L 4677 6006 L 4611 5987 L 4546 5967 L 4483 5947 L 4422 5926 L 4362 5905 L 4305 5884 L 4249 5862 L 4197 5840 L 4146 5818 L 4099 5795 L 4055 5773 L 4014 5750 L 3976 5726 L 3943 5703 L 3913 5679 L 3899 5668 L 3887 5656 L 3875 5644 L 3865 5632 L 3856 5620 L 3848 5608 L 3841 5596 L 3835 5584 L 3831 5572 L 3828 5560 L 3826 5548 L 3825 5536 L 3826 5524 L 3828 5512 L 3831 5500 L 3835 5488 L 3841 5476 L 3848 5464 L 3856 5452 L 3865 5440 L 3875 5429 L 3887 5417 L 3899 5405 L 3913 5393 L 3943 5370 L 3976 5346 L 4014 5323 L 4055 5300 L 4099 5277 L 4146 5255 L 4197 5233 L 4249 5211 L 4305 5189 L 4362 5168 L 4422 5147 L 4483 5126 L 4546 5106 L 4611 5086 L 4677 5067 L 4744 5048 L 4880 5012 L 5018 4978 L 5156 4946 L 5293 4917 L 5360 4903 L 5427 4890 L 5492 4878 L 5556 4866 L 5619 4856 L 5680 4845 L 5741 4836 L 5800 4827 L 5858 4819 L 5915 4811 L 5972 4804 L 6027 4798 L 6136 4786 L 6242 4777 L 6345 4769 L 6447 4763 L 6547 4758 L 6645 4754 L 6744 4752 L 6940 4749 L 7039 4749 L 7139 4749 "/>
<path transform="matrix(.06,0,0,-.06,0,595)" stroke-width="66" stroke-linecap="round" stroke-linejoin="round" fill="none" stroke="#000000" d="M 7140 54 L 7257 54 L 7372 56 L 7488 59 L 7546 62 L 7606 66 L 7667 70 L 7729 76 L 7792 82 L 7858 90 L 7926 100 L 7996 110 L 8069 123 L 8145 137 L 8224 152 L 8304 170 L 8385 188 L 8466 208 L 8546 229 L 8624 252 L 8699 275 L 8735 287 L 8770 300 L 8804 312 L 8836 325 L 8867 338 L 8897 351 L 8925 364 L 8951 377 L 8975 391 L 8997 405 L 9017 418 L 9034 432 L 9049 446 L 9062 460 L 9072 474 L 9080 488 L 9084 502 L 9086 516 L 9084 530 L 9080 544 L 9072 558 L 9062 572 L 9049 586 L 9034 600 L 9017 614 L 8997 628 L 8975 641 L 8951 655 L 8925 668 L 8897 681 L 8867 695 L 8836 707 L 8804 720 L 8770 733 L 8735 745 L 8699 757 L 8624 781 L 8546 803 L 8466 824 L 8385 844 L 8304 863 L 8224 880 L 8145 896 L 8069 910 L 7996 922 L 7926 933 L 7858 942 L 7792 950 L 7729 957 L 7667 962 L 7606 967 L 7546 970 L 7488 973 L 7372 977 L 7257 978 L 7140 978 L 7023 978 L 6908 977 L 6792 973 L 6734 970 L 6674 967 L 6613 962 L 6551 957 L 6488 950 L 6422 942 L 6354 933 L 6284 922 L 6211 910 L 6135 896 L 6056 880 L 5976 863 L 5895 844 L 5814 824 L 5734 803 L 5656 781 L 5581 757 L 5545 745 L 5510 733 L 5476 720 L 5444 707 L 5413 695 L 5383 681 L 5355 668 L 5329 655 L 5305 641 L 5283 628 L 5263 614 L 5246 600 L 5231 586 L 5218 572 L 5208 558 L 5200 544 L 5196 530 L 5194 516 L 5196 502 L 5200 488 L 5208 474 L 5218 460 L 5231 446 L 5246 432 L 5263 418 L 5283 405 L 5305 391 L 5329 377 L 5355 364 L 5383 351 L 5413 338 L 5444 325 L 5476 312 L 5510 300 L 5545 287 L 5581 275 L 5656 252 L 5734 229 L 5814 208 L 5895 188 L 5976 170 L 6056 152 L 6135 137 L 6211 123 L 6284 110 L 6354 100 L 6422 90 L 6488 82 L 6551 76 L 6613 70 L 6674 66 L 6734 62 L 6792 59 L 6908 56 L 7023 54 L 7140 54 "/>
<path transform="matrix(.06,0,0,-.06,0,595)" stroke-width="66" stroke-linecap="round" stroke-linejoin="round" fill="none" stroke="#000000" d="M 3825 5536 L 10452 5536 "/>
<path transform="matrix(.06,0,0,-.06,0,595)" stroke-width="66" stroke-linecap="round" stroke-linejoin="round" fill="none" stroke="#000000" d="M 7139 5536 L 7139 516 "/>
<path transform="matrix(.06,0,0,-.06,0,595)" stroke-width="66" stroke-linecap="round" stroke-linejoin="round" fill="none" stroke="#000000" d="M 4510 3026 L 9769 3026 "/>
<path transform="matrix(.06,0,0,-.06,0,595)" stroke-width="66" stroke-linecap="round" stroke-linejoin="round" fill="none" stroke="#000000" d="M 9766 3026 L 7139 2402 L 7297 2402 L 7452 2404 L 7609 2409 L 7688 2413 L 7768 2418 L 7850 2424 L 7934 2432 L 8020 2441 L 8109 2452 L 8200 2464 L 8247 2471 L 8295 2479 L 8344 2487 L 8394 2495 L 8444 2504 L 8496 2514 L 8602 2535 L 8711 2558 L 8820 2584 L 8930 2611 L 9037 2639 L 9143 2669 L 9194 2685 L 9244 2701 L 9293 2717 L 9340 2734 L 9385 2751 L 9429 2768 L 9471 2785 L 9511 2803 L 9548 2821 L 9583 2839 L 9616 2857 L 9646 2876 L 9672 2894 L 9696 2913 L 9717 2931 L 9734 2950 L 9748 2969 L 9757 2988 L 9764 3007 L 9765 3017 L 9766 3026 L 9765 3036 L 9764 3045 L 9757 3064 L 9748 3083 L 9734 3102 L 9717 3121 L 9696 3140 L 9672 3158 L 9646 3177 L 9616 3195 L 9583 3213 L 9548 3232 L 9511 3249 L 9471 3267 L 9429 3284 L 9385 3302 L 9340 3319 L 9293 3335 L 9244 3351 L 9194 3367 L 9143 3383 L 9037 3413 L 8930 3442 L 8820 3469 L 8711 3494 L 8602 3517 L 8496 3539 L 8444 3548 L 8394 3557 L 8344 3566 L 8295 3574 L 8247 3581 L 8200 3588 L 8109 3601 L 8020 3612 L 7934 3621 L 7850 3628 L 7768 3634 L 7688 3639 L 7609 3643 L 7452 3648 L 7297 3650 L 7139 3650 L 6981 3650 L 6826 3648 L 6670 3643 L 6591 3639 L 6510 3634 L 6428 3628 L 6344 3621 L 6258 3612 L 6170 3601 L 6078 3588 L 6031 3581 L 5983 3574 L 5934 3566 L 5885 3557 L 5834 3548 L 5782 3539 L 5676 3517 L 5568 3494 L 5458 3469 L 5349 3442 L 5241 3413 L 5136 3383 L 5085 3367 L 5035 3351 L 4986 3335 L 4939 3319 L 4893 3302 L 4849 3284 L 4807 3267 L 4768 3249 L 4730 3232 L 4695 3213 L 4663 3195 L 4633 3177 L 4606 3158 L 4582 3140 L 4562 3121 L 4545 3102 L 4531 3083 L 4521 3064 L 4515 3045 L 4513 3036 L 4513 3026 L 4513 3017 L 4515 3007 L 4521 2988 L 4531 2969 L 4545 2950 L 4562 2931 L 4582 2913 L 4606 2894 L 4633 2876 L 4663 2857 L 4695 2839 L 4730 2821 L 4768 2803 L 4807 2785 L 4849 2768 L 4893 2751 L 4939 2734 L 4986 2717 L 5035 2701 L 5085 2685 L 5136 2669 L 5241 2639 L 5349 2611 L 5458 2584 L 5568 2558 L 5676 2535 L 5782 2514 L 5834 2504 L 5885 2495 L 5934 2487 L 5983 2479 L 6031 2471 L 6078 2464 L 6170 2452 L 6258 2441 L 6344 2432 L 6428 2424 L 6510 2418 L 6591 2413 L 6670 2409 L 6826 2404 L 6981 2402 L 7139 2402 "/>
<path transform="matrix(.06,0,0,-.06,0,595)" stroke-width="66" stroke-linecap="round" stroke-linejoin="round" fill="none" stroke="#000000" d="M 4513 3026 L 7139 3650 "/>
<path transform="matrix(.06,0,0,-.06,0,595)" stroke-width="66" stroke-linecap="round" stroke-linejoin="round" fill="none" stroke="#000000" d="M 7139 3026 L 9614 2456 "/>
<path transform="matrix(.06,0,0,-.06,0,595)" stroke-width="66" stroke-linecap="round" stroke-linejoin="round" fill="none" stroke="#000000" d="M 7141 516 L 8452 204 L 9367 5004 "/>
<path transform="matrix(.06,0,0,-.06,0,595)" stroke-width="66" stroke-linecap="round" stroke-linejoin="round" fill="none" stroke="#000000" d="M 7139 2402 L 8452 2714 "/>
<path transform="matrix(.06,0,0,-.06,0,595)" stroke-width="66" stroke-linecap="round" stroke-linejoin="round" fill="none" stroke="#000000" d="M 7139 3026 L 8609 1978 "/>
<path transform="matrix(.06,0,0,-.06,0,595)" stroke-width="66" stroke-linecap="round" stroke-linejoin="round" fill="none" stroke="#000000" d="M 7141 516 L 7755 78 L 8182 4790 "/>
<path transform="matrix(.06,0,0,-.06,0,595)" stroke-width="66" stroke-linecap="round" stroke-linejoin="round" fill="none" stroke="#000000" d="M 7968 2434 L 8909 2605 "/>
<path transform="matrix(.06,0,0,-.06,0,595)" stroke-width="66" stroke-linecap="round" stroke-linejoin="round" fill="none" stroke="#000000" d="M 7139 3026 L 9201 2223 "/>
<path transform="matrix(.06,0,0,-.06,0,595)" stroke-width="66" stroke-linecap="round" stroke-linejoin="round" fill="none" stroke="#000000" d="M 9086 516 L 9769 3026 L 10436 5475 "/>
<path transform="matrix(.06,0,0,-.06,0,595)" stroke-width="66" stroke-linecap="round" stroke-linejoin="round" fill="none" stroke="#000000" d="M 7968 2434 L 8452 204 "/>
<path transform="matrix(.06,0,0,-.06,0,595)" stroke-width="66" stroke-linecap="round" stroke-linejoin="round" fill="none" stroke="#000000" d="M 7755 78 L 8909 2604 "/>
<path transform="matrix(.06,0,0,-.06,0,595)" stroke-width="66" stroke-linecap="round" stroke-linejoin="round" fill="none" stroke="#000000" d="M 7968 2434 L 9367 5004 "/>
<path transform="matrix(.06,0,0,-.06,0,595)" stroke-width="66" stroke-linecap="round" stroke-linejoin="round" fill="none" stroke="#000000" d="M 8182 4790 L 8909 2605 "/>
<path transform="matrix(.06,0,0,-.06,0,595)" stroke-width="66" stroke-linecap="round" stroke-linejoin="round" fill="none" stroke="#000000" d="M 8467 2509 L 9201 2223 "/>
<path transform="matrix(.06,0,0,-.06,0,595)" stroke-width="66" stroke-linecap="round" stroke-linejoin="round" fill="none" stroke="#000000" d="M 8246 1153 L 8514 1049 "/>
<path transform="matrix(.06,0,0,-.06,0,595)" stroke-width="66" stroke-linecap="round" stroke-linejoin="round" fill="none" stroke="#000000" d="M 8587 3572 L 8855 3468 L 8930 3304 L 8967 3222 L 9002 3141 L 9036 3059 L 9068 2978 L 9098 2897 L 9125 2817 L 9149 2737 L 9169 2657 L 9178 2617 L 9185 2578 L 9192 2539 L 9198 2499 L 9202 2460 L 9205 2421 L 9207 2383 L 9208 2344 L 9207 2306 L 9205 2267 L 9202 2229 L 9197 2192 L 9190 2154 L 9183 2116 L 9173 2079 L 9163 2042 L 9151 2005 L 9138 1968 L 9124 1932 L 9108 1895 L 9092 1859 L 9074 1823 L 9036 1751 L 8994 1679 L 8949 1608 L 8901 1537 L 8850 1467 L 8798 1397 L 8743 1327 L 8687 1257 L 8630 1188 L 8514 1049 "/>
<path transform="matrix(.06,0,0,-.06,0,595)" stroke-width="66" stroke-linecap="round" stroke-linejoin="round" fill="none" stroke="#000000" d="M 7139 3026 L 7141 516 "/>
<path transform="matrix(.06,0,0,-.06,0,595)" stroke-width="66" stroke-linecap="round" stroke-linejoin="round" fill="none" stroke="#000000" d="M 7861 1257 L 8095 1090 "/>
<path transform="matrix(.06,0,0,-.06,0,595)" stroke-width="66" stroke-linecap="round" stroke-linejoin="round" fill="none" stroke="#000000" d="M 7139 3026 L 7139 5536 "/>
<path transform="matrix(.06,0,0,-.06,0,595)" stroke-width="66" stroke-linecap="round" stroke-linejoin="round" fill="none" stroke="#000000" d="M 8074 3605 L 8309 3447 L 8373 3287 L 8435 3127 L 8464 3048 L 8492 2968 L 8519 2889 L 8543 2811 L 8566 2732 L 8586 2654 L 8603 2577 L 8617 2500 L 8628 2423 L 8635 2347 L 8638 2310 L 8639 2272 L 8639 2235 L 8638 2197 L 8636 2160 L 8633 2123 L 8629 2087 L 8624 2050 L 8617 2014 L 8609 1978 L 8600 1942 L 8590 1906 L 8578 1871 L 8565 1835 L 8551 1800 L 8537 1765 L 8504 1696 L 8467 1627 L 8428 1559 L 8386 1491 L 8341 1424 L 8294 1356 L 8246 1290 L 8196 1223 L 8095 1090 L 8514 1049 "/>
<path transform="matrix(.06,0,0,-.06,0,595)" stroke-width="66" stroke-linecap="round" stroke-linejoin="round" fill="none" stroke="#000000" d="M 8309 3447 L 8855 3468 "/>
<path transform="matrix(.06,0,0,-.06,0,595)" stroke-width="66" stroke-linecap="round" stroke-linejoin="round" fill="none" stroke="#000000" d="M 7915 1847 L 7861 1257 "/>
<path transform="matrix(.06,0,0,-.06,0,595)" stroke-width="66" stroke-linecap="round" stroke-linejoin="round" fill="none" stroke="#000000" d="M 8074 3605 L 8029 3020 "/>
<path transform="matrix(.06,0,0,-.06,0,595)" stroke-width="66" stroke-linecap="round" stroke-linejoin="round" fill="none" stroke="#000000" d="M 7968 2434 L 8609 1978 "/>
<path transform="matrix(.06,0,0,-.06,0,595)" stroke-width="66" stroke-linecap="round" stroke-linejoin="round" fill="none" stroke="#000000" d="M 8051 3313 L 8118 3174 L 8182 3036 L 8212 2967 L 8241 2898 L 8268 2830 L 8293 2762 L 8316 2694 L 8336 2626 L 8354 2559 L 8368 2492 L 8378 2426 L 8385 2360 L 8387 2327 L 8388 2295 L 8387 2262 L 8386 2230 L 8383 2198 L 8380 2166 L 8375 2134 L 8368 2102 L 8361 2070 L 8352 2039 L 8343 2008 L 8332 1977 L 8307 1915 L 8279 1853 L 8247 1793 L 8212 1732 L 8174 1672 L 8134 1612 L 8092 1552 L 8048 1493 L 8002 1434 L 7956 1375 L 7861 1257 "/>
<path transform="matrix(.06,0,0,-.06,0,595)" stroke-width="66" stroke-linecap="round" stroke-linejoin="round" fill="none" stroke="#000000" d="M 8074 3605 L 8587 3572 "/>
<path transform="matrix(.06,0,0,-.06,0,595)" stroke-width="66" stroke-linecap="round" stroke-linejoin="round" fill="none" stroke="#000000" d="M 4514 3026 L 7139 2402 "/>
<path transform="matrix(.06,0,0,-.06,0,595)" stroke-width="66" stroke-linecap="round" stroke-linejoin="round" fill="none" stroke="#000000" d="M 7139 3650 L 9766 3026 "/>
<path transform="matrix(-.009485999,.0592452,.0592452,.009485999,489.75,57.130006)" stroke-width="66" stroke-linecap="round" stroke-linejoin="round" fill="none" stroke="#000000" d="M 853.5 0 C 853.5 303.4805 471.37507 549.5 0 549.5 C -471.37507 549.5 -853.5 303.4805 -853.5 0 C -853.5 -303.4805 -471.37507 -549.5 0 -549.5 C 471.37507 -549.5 853.5 -303.4805 853.5 0 "/>
<path transform="matrix(.06,0,0,-.06,0,595)" stroke-width="66" stroke-linecap="round" stroke-linejoin="round" fill="none" stroke="#000000" d="M 8386 9581 L 8334 9576 L 8309 9572 L 8285 9567 L 8262 9559 L 8240 9548 L 8219 9536 L 8199 9521 L 8180 9505 L 8162 9486 L 8145 9467 L 8129 9446 L 8113 9424 L 8099 9401 L 8072 9353 L 8048 9303 L 8027 9253 L 8009 9203 L 8002 9178 L 7995 9153 L 7990 9128 L 7986 9104 L 7983 9079 L 7982 9055 L 7982 9030 L 7984 9006 L 7987 8983 L 7992 8959 L 7998 8936 L 8005 8913 L 8023 8866 L 8043 8820 L 8065 8773 L 8087 8725 L 8109 8677 L 8128 8626 L 8137 8600 L 8143 8575 L 8148 8549 L 8150 8525 L 8149 8502 L 8144 8480 L 8135 8460 L 8124 8440 L 8111 8421 L 8096 8401 L 8078 8381 L 8060 8360 L 8041 8337 L 8022 8313 L 8002 8287 L 7994 8274 L 7986 8261 L 7981 8250 L 7977 8239 L 7977 8231 L 7977 8227 L 7979 8224 L 7985 8220 L 7994 8218 L 8005 8218 L 8018 8220 L 8033 8223 L 8048 8227 L 8081 8239 L 8112 8252 L 8140 8267 L 8166 8284 L 8189 8301 L 8209 8320 L 8227 8340 L 8243 8361 L 8257 8383 L 8268 8405 L 8278 8428 L 8286 8452 L 8293 8476 L 8298 8501 L 8302 8526 L 8307 8577 L 8308 8629 L 8307 8655 L 8305 8681 L 8302 8706 L 8298 8731 L 8293 8756 L 8286 8781 L 8278 8805 L 8269 8828 L 8259 8851 L 8247 8873 L 8198 8962 L 8187 8985 L 8177 9009 L 8168 9033 L 8161 9058 L 8155 9083 L 8152 9109 L 8150 9136 L 8150 9162 L 8152 9187 L 8156 9213 L 8162 9237 L 8169 9260 L 8179 9283 L 8191 9304 L 8204 9324 L 8220 9344 L 8237 9363 L 8255 9381 L 8275 9399 L 8296 9417 L 8343 9453 L 8364 9471 L 8374 9481 L 8383 9491 L 8390 9501 L 8395 9511 L 8399 9522 L 8400 9533 L 8399 9545 L 8396 9557 L 8386 9581 L 8387 9583 L 8387 9582 L 8387 9580 L 8384 9572 L 8380 9563 L 8375 9553 L 8370 9546 L 8364 9540 L 8358 9537 L 8352 9535 L 8345 9535 L 8333 9536 L 8320 9537 L 8308 9536 L 8295 9533 L 8283 9529 L 8259 9518 L 8213 9493 L 8192 9479 L 8182 9471 L 8173 9463 L 8157 9444 L 8143 9423 L 8118 9377 L 8092 9333 L 8079 9311 L 8068 9288 L 8058 9265 L 8050 9241 L 8022 9142 L 8016 9117 L 8011 9092 L 8008 9067 L 8007 9042 L 8010 9016 L 8014 8991 L 8021 8966 L 8029 8942 L 8048 8895 L 8068 8848 L 8077 8824 L 8085 8800 L 8093 8776 L 8103 8752 L 8114 8730 L 8127 8708 L 8153 8664 L 8164 8640 L 8173 8616 L 8180 8592 L 8184 8566 L 8184 8541 L 8182 8515 L 8176 8490 L 8167 8466 L 8156 8444 L 8143 8422 L 8128 8401 L 8112 8381 L 8079 8342 L 8046 8303 L 8016 8261 L 7987 8219 "/>
<path transform="matrix(-.036950403,.047272199,.047272199,.036950403,543.99,116.29001)" stroke-width="66" stroke-linecap="round" stroke-linejoin="round" fill="none" stroke="#000000" d="M 853.5 0 C 853.5 303.4805 471.37507 549.5 0 549.5 C -471.37507 549.5 -853.5 303.4805 -853.5 0 C -853.5 -303.4805 -471.37507 -549.5 0 -549.5 C 471.37507 -549.5 853.5 -303.4805 853.5 0 "/>
<path transform="matrix(.06,0,0,-.06,0,595)" stroke-width="66" stroke-linecap="round" stroke-linejoin="round" fill="none" stroke="#000000" d="M 9560 8410 L 9512 8430 L 9488 8439 L 9464 8446 L 9440 8450 L 9416 8452 L 9391 8451 L 9367 8448 L 9342 8442 L 9318 8435 L 9293 8426 L 9269 8416 L 9245 8404 L 9221 8390 L 9175 8361 L 9130 8330 L 9087 8296 L 9047 8261 L 9029 8243 L 9011 8224 L 8994 8205 L 8979 8185 L 8965 8165 L 8952 8144 L 8940 8123 L 8930 8101 L 8921 8079 L 8914 8056 L 8908 8032 L 8903 8008 L 8896 7959 L 8892 7909 L 8888 7857 L 8885 7805 L 8880 7752 L 8872 7698 L 8867 7672 L 8861 7646 L 8853 7622 L 8843 7599 L 8830 7580 L 8816 7563 L 8798 7549 L 8779 7537 L 8758 7527 L 8735 7517 L 8710 7508 L 8684 7498 L 8656 7488 L 8628 7476 L 8598 7463 L 8584 7455 L 8572 7448 L 8561 7440 L 8553 7433 L 8548 7426 L 8548 7422 L 8548 7419 L 8551 7412 L 8558 7406 L 8567 7401 L 8579 7396 L 8594 7392 L 8609 7388 L 8643 7382 L 8677 7379 L 8710 7378 L 8740 7380 L 8769 7385 L 8795 7391 L 8821 7400 L 8845 7411 L 8867 7423 L 8888 7437 L 8908 7453 L 8926 7470 L 8944 7488 L 8961 7507 L 8976 7527 L 9005 7569 L 9031 7614 L 9043 7637 L 9054 7660 L 9063 7684 L 9072 7708 L 9079 7732 L 9085 7757 L 9090 7782 L 9093 7807 L 9095 7832 L 9096 7857 L 9097 7959 L 9098 7984 L 9100 8010 L 9104 8035 L 9110 8060 L 9117 8085 L 9127 8110 L 9138 8134 L 9150 8156 L 9165 8178 L 9180 8198 L 9197 8217 L 9215 8234 L 9235 8248 L 9255 8261 L 9277 8272 L 9299 8282 L 9323 8291 L 9349 8298 L 9375 8304 L 9402 8309 L 9460 8318 L 9488 8324 L 9501 8328 L 9513 8332 L 9524 8337 L 9534 8344 L 9542 8351 L 9549 8361 L 9553 8371 L 9556 8383 L 9560 8410 L 9561 8411 L 9562 8411 L 9561 8410 L 9560 8408 L 9554 8403 L 9546 8396 L 9537 8391 L 9528 8386 L 9521 8385 L 9514 8385 L 9508 8386 L 9502 8389 L 9491 8396 L 9481 8403 L 9469 8408 L 9457 8411 L 9445 8414 L 9419 8416 L 9366 8416 L 9341 8414 L 9328 8412 L 9316 8409 L 9293 8400 L 9271 8388 L 9227 8361 L 9182 8334 L 9161 8321 L 9140 8307 L 9120 8292 L 9101 8274 L 9029 8201 L 9012 8182 L 8995 8163 L 8980 8142 L 8968 8120 L 8957 8097 L 8949 8073 L 8943 8048 L 8938 8023 L 8932 7972 L 8927 7922 L 8923 7897 L 8919 7871 L 8914 7846 L 8911 7821 L 8910 7796 L 8911 7771 L 8912 7719 L 8911 7693 L 8907 7668 L 8901 7643 L 8892 7619 L 8880 7597 L 8866 7575 L 8848 7556 L 8829 7539 L 8809 7525 L 8787 7512 L 8764 7502 L 8740 7492 L 8692 7474 L 8644 7455 L 8598 7433 L 8552 7411 "/>
<path transform="matrix(.0148356,.058136997,.058136997,-.0148356,443.91,185.41)" stroke-width="66" stroke-linecap="round" stroke-linejoin="round" fill="none" stroke="#000000" d="M 853.5 0 C 853.5 303.4805 471.37507 549.5 0 549.5 C -471.37507 549.5 -853.5 303.4805 -853.5 0 C -853.5 -303.4805 -471.37507 -549.5 0 -549.5 C 471.37507 -549.5 853.5 -303.4805 853.5 0 "/>
<path transform="matrix(.06,0,0,-.06,0,595)" stroke-width="66" stroke-linecap="round" stroke-linejoin="round" fill="none" stroke="#000000" d="M 7358 7481 L 7312 7456 L 7291 7442 L 7271 7427 L 7253 7411 L 7237 7392 L 7222 7372 L 7210 7351 L 7199 7328 L 7190 7304 L 7182 7280 L 7175 7254 L 7170 7228 L 7166 7201 L 7161 7146 L 7158 7091 L 7159 7037 L 7162 6984 L 7165 6958 L 7169 6933 L 7174 6908 L 7180 6883 L 7188 6860 L 7196 6837 L 7206 6815 L 7217 6793 L 7230 6773 L 7243 6753 L 7258 6734 L 7274 6716 L 7309 6680 L 7346 6646 L 7384 6611 L 7424 6577 L 7463 6540 L 7501 6502 L 7519 6481 L 7535 6460 L 7549 6439 L 7561 6418 L 7569 6396 L 7573 6374 L 7573 6352 L 7571 6330 L 7566 6306 L 7560 6282 L 7552 6257 L 7544 6230 L 7535 6202 L 7527 6172 L 7520 6141 L 7517 6125 L 7515 6111 L 7515 6098 L 7516 6087 L 7519 6079 L 7521 6076 L 7524 6074 L 7531 6072 L 7539 6074 L 7550 6078 L 7561 6085 L 7573 6094 L 7586 6104 L 7611 6127 L 7634 6152 L 7654 6177 L 7671 6203 L 7685 6228 L 7697 6253 L 7705 6279 L 7711 6304 L 7715 6329 L 7717 6354 L 7717 6380 L 7715 6405 L 7711 6430 L 7706 6454 L 7700 6479 L 7684 6528 L 7664 6576 L 7653 6599 L 7642 6622 L 7629 6644 L 7615 6666 L 7600 6686 L 7584 6706 L 7568 6725 L 7550 6743 L 7531 6760 L 7512 6776 L 7431 6838 L 7412 6855 L 7393 6872 L 7376 6891 L 7359 6911 L 7344 6932 L 7330 6955 L 7318 6978 L 7308 7002 L 7299 7026 L 7293 7051 L 7289 7076 L 7286 7100 L 7287 7124 L 7289 7149 L 7293 7173 L 7299 7197 L 7307 7221 L 7317 7245 L 7328 7269 L 7341 7294 L 7369 7346 L 7382 7371 L 7387 7384 L 7391 7396 L 7393 7408 L 7394 7420 L 7393 7431 L 7390 7442 L 7384 7452 L 7376 7462 L 7358 7481 "/>
<path transform="matrix(.06,0,0,-.06,0,595)" stroke-width="66" stroke-linecap="round" stroke-linejoin="round" fill="none" stroke="#000000" d="M 7533 6073 L 7542 6122 L 7554 6172 L 7568 6221 L 7583 6271 L 7590 6295 L 7595 6320 L 7599 6345 L 7600 6370 L 7598 6396 L 7594 6421 L 7586 6446 L 7576 6469 L 7562 6491 L 7546 6511 L 7528 6529 L 7509 6546 L 7467 6576 L 7447 6591 L 7427 6607 L 7409 6625 L 7392 6644 L 7375 6663 L 7357 6681 L 7320 6716 L 7284 6752 L 7267 6771 L 7251 6791 L 7237 6813 L 7225 6835 L 7215 6858 L 7208 6883 L 7203 6908 L 7198 6933 L 7184 7035 L 7182 7060 L 7182 7085 L 7184 7111 L 7187 7136 L 7193 7187 L 7198 7238 L 7202 7263 L 7209 7287 L 7214 7299 L 7220 7310 L 7235 7331 L 7267 7372 L 7284 7392 L 7294 7400 L 7304 7408 L 7315 7414 L 7327 7418 L 7339 7422 L 7345 7425 L 7350 7429 L 7354 7434 L 7357 7441 L 7359 7451 L 7360 7461 L 7359 7472 L 7359 7480 L 7358 7482 L 7358 7483 L 7358 7480 "/>
</g>
<clipPath id="cp1">
<path transform="matrix(.06,0,0,-.06,0,595)" d="M 0 0 L 14031 0 L 14031 9921 L 0 9921 L 0 0 "/>
</clipPath>
<g clip-path="url(#cp1)">
<path transform="matrix(.06,0,0,-.06,0,595)" stroke-width="0" stroke-linecap="round" stroke-linejoin="round" fill="none" stroke="#000000" d="M 14022 0 L 14022 9891 L 0 9891 "/>
</g>
</g>
</g>
</svg>
